#N canvas 372 196 871 490 10;
#X obj 101 101 cnv 15 153 58 empty empty empty 20 8 0 14 -33289 -4034
0;
#X obj 110 140 hsl 128 8 80 500 0 0 empty empty empty -2 -8 0 10 -33289
-4034 -203904 8100 0;
#X obj 198 121 nbx 3 15 122 1000 1 1 empty empty Bpm 11 -8 0 12 -33289
-4034 -203904 172 256;
#X obj 307 342 outlet;
#X obj 107 107 tgl 25 0 empty empty Toggle 30 6 0 10 -33289 -4034 -203904
1 1;
#X obj -179 213 outlet;
#X text 452 484 Lucas Tonussi 2014;
#X obj 305 306 expr floor (60000 / $f1 \, 0);
#X connect 1 0 7 0;
#X connect 4 0 5 0;
#X connect 7 0 3 0;
#X connect 7 0 2 0;
#X coords 0 -1 1 1 155 60 2 100 100;
