#N canvas 39 54 1327 714 10;
#X msg 544 -563 1;
#X obj 544 -539 +;
#X obj 219 -412 bng 15 250 50 0 empty empty empty 17 7 0 10 -262144
-1 -1;
#X obj 236 -412 bng 15 250 50 0 empty empty empty 17 7 0 10 -262144
-1 -1;
#X obj 253 -412 bng 15 250 50 0 empty empty empty 17 7 0 10 -262144
-1 -1;
#X obj 271 -412 bng 15 250 50 0 empty empty empty 17 7 0 10 -262144
-1 -1;
#X obj 125 493 bng 15 250 50 0 empty empty empty 17 7 0 10 -262144
-1 -1;
#X obj 152 493 bng 15 250 50 0 empty empty empty 17 7 0 10 -262144
-1 -1;
#X obj 178 493 bng 15 250 50 0 empty empty empty 17 7 0 10 -262144
-1 -1;
#X obj 204 493 bng 15 250 50 0 empty empty empty 17 7 0 10 -262144
-1 -1;
#X obj 544 -609 metro;
#X obj 544 -584 bng 15 250 50 0 empty empty empty 17 7 0 10 -262144
-1 -1;
#X obj 125 867 i;
#X obj 152 867 i;
#X obj 178 867 i;
#X obj 204 867 i;
#X obj 229 493 bng 15 250 50 0 empty empty empty 17 7 0 10 -262144
-1 -1;
#X obj 256 493 bng 15 250 50 0 empty empty empty 17 7 0 10 -262144
-1 -1;
#X obj 282 493 bng 15 250 50 0 empty empty empty 17 7 0 10 -262144
-1 -1;
#X obj 308 493 bng 15 250 50 0 led7 empty empty 17 7 0 10 -262144 -1
-1;
#X obj 333 493 bng 15 250 50 0 empty empty empty 17 7 0 10 -262144
-1 -1;
#X obj 229 867 i;
#X obj 256 867 i;
#X obj 282 867 i;
#X obj 308 867 i;
#X obj 333 867 i;
#X obj 360 867 i;
#X obj 386 867 i;
#X obj 412 867 i;
#X obj 437 867 i;
#X obj 464 867 i;
#X obj 490 867 i;
#X obj 516 867 i;
#X obj 289 -412 bng 15 250 50 0 empty empty empty 17 7 0 10 -262144
-1 -1;
#X obj 307 -412 bng 15 250 50 0 empty empty empty 17 7 0 10 -262144
-1 -1;
#X obj 325 -412 bng 15 250 50 0 empty empty empty 17 7 0 10 -262144
-1 -1;
#X obj 360 493 bng 15 250 50 0 empty empty empty 17 7 0 10 -262144
-1 -1;
#X obj 386 493 bng 15 250 50 0 empty empty empty 17 7 0 10 -262144
-1 -1;
#X obj 412 493 bng 15 250 50 0 empty empty empty 17 7 0 10 -262144
-1 -1;
#X obj 437 493 bng 15 250 50 0 empty empty empty 17 7 0 10 -262144
-1 -1;
#X obj 464 493 bng 15 250 50 0 led13 empty empty 17 7 0 10 -262144
-1 -1;
#X obj 490 493 bng 15 250 50 0 empty empty empty 17 7 0 10 -262144
-1 -1;
#X obj 516 493 bng 15 250 50 0 empty empty empty 17 7 0 10 -262144
-1 -1;
#X obj 343 -412 bng 15 250 50 0 empty empty empty 17 7 0 10 -262144
-1 -1;
#X obj 94 5 i;
#X obj 119 5 i;
#X obj 144 5 i;
#X obj 169 5 i;
#X obj 194 5 i;
#X obj 219 5 i;
#X obj 244 5 i;
#X obj 269 5 i;
#X obj 294 5 i;
#X obj 319 5 i;
#X obj 344 5 i;
#X obj 369 5 i;
#X obj 394 5 i;
#X obj 419 5 i;
#X obj 444 5 i;
#X obj 469 5 i;
#X obj 640 -539 mod 8;
#X obj 544 -516 route 1 2 3 4 5 6 7 8;
#X obj 737 -499 bng 15 250 50 0 empty empty empty 17 7 0 10 -262144
-258113 -1;
#X text 676 -502 rejection;
#X obj 198 453 route 1 2 3 4 5 6 7 8 9 10 11 12 13 14 15 16;
#X obj 601 470 bng 15 250 50 0 empty empty empty 17 7 0 10 -262144
-258113 -1;
#X text 540 467 rejection;
#X text 859 662 Lucas Tonussi 2014;
#X obj 544 384 <<;
#X obj 509 384 <<;
#X obj 477 384 <<;
#X obj 442 384 <<;
#X obj 408 384 <<;
#X obj 373 384 <<;
#X obj 340 384 <<;
#X obj 305 384 <<;
#X obj 271 384 <<;
#X obj 237 384 <<;
#X obj 203 384 <<;
#X obj 168 384 <<;
#X obj 135 384 <<;
#X obj 100 384 <<;
#X obj 67 384 <<;
#X obj 32 384 <<;
#X obj 112 188 a_randgrid;
#N canvas 39 54 1327 714 makenote_control 0;
#X obj 141 120 knob 20 20 1 100 0 0 empty empty empty 0 -8 0 8 -262144
-259329 -1 0 0;
#X obj 107 120 knob 20 20 1 500 0 0 empty empty empty 0 -8 0 8 -262144
-259329 -1 0 0;
#X obj 166 130 hradio 12 1 0 4 empty empty empty 0 -8 0 10 -228856
-1 -1 0;
#X obj -305 366 outlet;
#X obj 141 554 outlet;
#X obj 437 285 outlet;
#X text 137 101 Velocity;
#X text 103 101 Delay;
#X floatatom 215 128 2 0 0 0 - - -;
#X obj 274 126 + 1;
#X text 164 113 Zyn Channel;
#X obj -305 332 expr ceil($f1 \, 0);
#X obj 141 525 expr ceil($f1 \, 0);
#X connect 0 0 12 0;
#X connect 1 0 11 0;
#X connect 2 0 9 0;
#X connect 2 0 5 0;
#X connect 9 0 8 0;
#X connect 11 0 3 0;
#X connect 12 0 4 0;
#X coords 0 -1 1 1 135 55 2 100 100;
#X restore 122 262 pd makenote_control;
#X obj 516 987 c_makenote;
#X obj 299 212 a_piano16;
#X obj 287 111 a_randseqbars;
#X obj 113 119 a_bpm;
#X connect 0 0 1 0;
#X connect 1 0 60 0;
#X connect 1 0 61 0;
#X connect 2 0 44 0;
#X connect 2 0 52 0;
#X connect 2 0 45 0;
#X connect 2 0 54 0;
#X connect 3 0 45 0;
#X connect 3 0 53 0;
#X connect 3 0 46 0;
#X connect 4 0 46 0;
#X connect 4 0 54 0;
#X connect 4 0 47 0;
#X connect 4 0 44 0;
#X connect 5 0 47 0;
#X connect 5 0 55 0;
#X connect 5 0 48 0;
#X connect 5 0 52 0;
#X connect 6 0 12 0;
#X connect 6 0 87 0;
#X connect 7 0 13 0;
#X connect 7 0 87 1;
#X connect 8 0 14 0;
#X connect 8 0 87 2;
#X connect 9 0 15 0;
#X connect 9 0 87 3;
#X connect 10 0 11 0;
#X connect 11 0 0 0;
#X connect 12 0 86 0;
#X connect 13 0 86 0;
#X connect 14 0 86 0;
#X connect 15 0 86 0;
#X connect 16 0 21 0;
#X connect 16 0 87 4;
#X connect 17 0 22 0;
#X connect 17 0 87 5;
#X connect 18 0 23 0;
#X connect 18 0 87 6;
#X connect 19 0 24 0;
#X connect 19 0 87 7;
#X connect 20 0 25 0;
#X connect 20 0 87 8;
#X connect 21 0 86 0;
#X connect 22 0 86 0;
#X connect 23 0 86 0;
#X connect 24 0 86 0;
#X connect 25 0 86 0;
#X connect 26 0 86 0;
#X connect 27 0 86 0;
#X connect 28 0 86 0;
#X connect 29 0 86 0;
#X connect 30 0 86 0;
#X connect 31 0 86 0;
#X connect 32 0 86 0;
#X connect 33 0 48 0;
#X connect 33 0 56 0;
#X connect 33 0 55 0;
#X connect 33 0 51 0;
#X connect 34 0 49 0;
#X connect 34 0 57 0;
#X connect 34 0 56 0;
#X connect 34 0 59 0;
#X connect 35 0 50 0;
#X connect 35 0 58 0;
#X connect 35 0 57 0;
#X connect 36 0 26 0;
#X connect 36 0 87 9;
#X connect 37 0 27 0;
#X connect 37 0 87 10;
#X connect 38 0 28 0;
#X connect 38 0 87 11;
#X connect 39 0 29 0;
#X connect 39 0 87 12;
#X connect 40 0 30 0;
#X connect 40 0 87 13;
#X connect 41 0 31 0;
#X connect 41 0 87 14;
#X connect 42 0 32 0;
#X connect 42 0 87 15;
#X connect 43 0 59 0;
#X connect 43 0 51 0;
#X connect 43 0 58 0;
#X connect 43 0 49 0;
#X connect 44 0 83 0;
#X connect 45 0 82 0;
#X connect 46 0 81 0;
#X connect 47 0 80 0;
#X connect 48 0 79 0;
#X connect 49 0 78 0;
#X connect 50 0 77 0;
#X connect 51 0 76 0;
#X connect 52 0 75 0;
#X connect 53 0 74 0;
#X connect 54 0 73 0;
#X connect 55 0 72 0;
#X connect 56 0 71 0;
#X connect 57 0 70 0;
#X connect 58 0 69 0;
#X connect 59 0 68 0;
#X connect 60 0 1 1;
#X connect 61 0 2 0;
#X connect 61 1 3 0;
#X connect 61 2 4 0;
#X connect 61 3 5 0;
#X connect 61 4 33 0;
#X connect 61 5 34 0;
#X connect 61 6 35 0;
#X connect 61 7 43 0;
#X connect 61 8 62 0;
#X connect 64 0 6 0;
#X connect 64 1 7 0;
#X connect 64 2 8 0;
#X connect 64 3 9 0;
#X connect 64 4 16 0;
#X connect 64 5 17 0;
#X connect 64 6 18 0;
#X connect 64 7 19 0;
#X connect 64 8 20 0;
#X connect 64 9 36 0;
#X connect 64 10 37 0;
#X connect 64 11 38 0;
#X connect 64 12 39 0;
#X connect 64 13 40 0;
#X connect 64 14 41 0;
#X connect 64 15 42 0;
#X connect 64 16 65 0;
#X connect 68 0 64 0;
#X connect 69 0 64 0;
#X connect 70 0 64 0;
#X connect 71 0 64 0;
#X connect 72 0 64 0;
#X connect 73 0 64 0;
#X connect 74 0 64 0;
#X connect 75 0 64 0;
#X connect 76 0 64 0;
#X connect 77 0 64 0;
#X connect 78 0 64 0;
#X connect 79 0 64 0;
#X connect 80 0 64 0;
#X connect 81 0 64 0;
#X connect 82 0 64 0;
#X connect 83 0 64 0;
#X connect 84 0 83 1;
#X connect 84 1 82 1;
#X connect 84 2 81 1;
#X connect 84 3 80 1;
#X connect 84 4 79 1;
#X connect 84 5 78 1;
#X connect 84 6 77 1;
#X connect 84 7 76 1;
#X connect 84 8 75 1;
#X connect 84 9 74 1;
#X connect 84 10 73 1;
#X connect 84 11 72 1;
#X connect 84 12 71 1;
#X connect 84 13 70 1;
#X connect 84 14 69 1;
#X connect 84 15 68 1;
#X connect 85 0 86 1;
#X connect 85 1 86 2;
#X connect 85 2 86 3;
#X connect 87 0 12 1;
#X connect 87 1 13 1;
#X connect 87 2 14 1;
#X connect 87 3 15 1;
#X connect 87 4 21 1;
#X connect 87 5 22 1;
#X connect 87 6 23 1;
#X connect 87 7 24 1;
#X connect 87 8 25 1;
#X connect 87 9 26 1;
#X connect 87 10 27 1;
#X connect 87 11 28 1;
#X connect 87 12 29 1;
#X connect 87 13 30 1;
#X connect 87 14 31 1;
#X connect 87 15 32 1;
#X connect 88 0 44 1;
#X connect 88 1 45 1;
#X connect 88 2 46 1;
#X connect 88 3 47 1;
#X connect 88 4 48 1;
#X connect 88 5 49 1;
#X connect 88 6 50 1;
#X connect 88 7 51 1;
#X connect 88 8 52 1;
#X connect 88 9 53 1;
#X connect 88 10 54 1;
#X connect 88 11 55 1;
#X connect 88 12 56 1;
#X connect 88 13 57 1;
#X connect 88 14 58 1;
#X connect 88 15 59 1;
#X connect 89 0 10 0;
#X connect 89 1 10 1;
#X coords 0 -1 1 1 385 235 2 100 100;
