#N canvas 39 24 1327 719 10;
#X obj 178 139 hradio 12 1 0 4 empty empty Zyn-channel 0 -8 0 10 -228856
-33289 -33289 0;
#X obj 262 400 outlet;
#X obj 300 316 outlet;
#X obj 447 295 outlet;
#X floatatom 227 137 2 0 0 0 - - -, f 2;
#X obj 463 219 + 1;
#X obj 262 366 expr ceil($f1);
#X obj 300 287 expr ceil($f1);
#X obj 143 107 vsl 15 45 0 1000 0 0 empty empty empty 0 -9 0 10 -232576
-1 -1 4400 1;
#X obj 105 107 vsl 15 45 0 1000 0 0 empty empty empty 0 -9 0 10 -204800
-1 -1 4400 1;
#X connect 0 0 5 0;
#X connect 0 0 3 0;
#X connect 5 0 4 0;
#X connect 6 0 1 0;
#X connect 7 0 2 0;
#X connect 8 0 7 0;
#X connect 9 0 6 0;
#X coords 0 -1 1 1 150 60 2 100 100;
