#N canvas 309 113 910 300 10;
#N canvas 792 233 450 525 listrand 0;
#X obj 83 65 inlet;
#X msg 83 121 seed \$1;
#X obj 171 300 random \$1;
#X obj 171 362 list prepend;
#X obj 264 363 t a;
#X obj 171 266 until;
#X obj 140 121 t b b b;
#X obj 148 383 list;
#X obj 229 63 inlet;
#X obj 302 64 inlet;
#X obj 302 143 f \$2;
#X obj 313 115 loadbang;
#X obj 83 96 route seed;
#X obj 148 416 outlet;
#X text 83 39 seed/bang;
#X text 230 41 range;
#X text 303 40 length;
#X obj 171 245 f 1;
#X obj 302 163 max 1;
#X connect 0 0 12 0;
#X connect 1 0 2 0;
#X connect 2 0 3 0;
#X connect 3 0 4 0;
#X connect 3 0 7 1;
#X connect 4 0 3 1;
#X connect 5 0 2 0;
#X connect 6 0 7 0;
#X connect 6 1 17 0;
#X connect 6 2 3 1;
#X connect 7 0 13 0;
#X connect 8 0 2 1;
#X connect 9 0 10 0;
#X connect 10 0 18 0;
#X connect 11 0 10 0;
#X connect 12 0 1 0;
#X connect 12 1 6 0;
#X connect 17 0 5 0;
#X connect 18 0 17 1;
#X restore 103 274 pd listrand;
#X obj 103 295 list;
#X obj 103 316 unpack 0 0 0 0 0 0 0 0 0 0 0 0 0 0 0 0;
#X obj 166 252 init 16;
#X obj 163 112 bng 15 250 50 0 empty empty Random 17 7 0 10 -33289
-4034 -159808;
#X obj 103 341 outlet;
#X obj 118 362 outlet;
#X obj 133 383 outlet;
#X obj 148 404 outlet;
#X obj 163 424 outlet;
#X obj 176 444 outlet;
#X obj 193 465 outlet;
#X obj 208 486 outlet;
#X obj 223 507 outlet;
#X obj 238 528 outlet;
#X obj 253 549 outlet;
#X obj 268 570 outlet;
#X obj 283 590 outlet;
#X obj 298 611 outlet;
#X obj 313 632 outlet;
#X obj 328 653 outlet;
#X obj 110 132 hsl 145 8 1 127 0 0 empty empty empty -2 -8 0 10 -33289
-4034 -159808 5600 0;
#X obj 108 112 tgl 15 0 empty empty Always 17 7 0 10 -33289 -4034 -159808
0 1;
#X obj 163 -106 metro;
#X obj 223 115 hsl 32 8 80 500 0 0 empty empty Bpm -2 -8 0 10 -33289
-4034 -159808 3100 0;
#X obj 220 -20 init 500;
#X floatatom 433 159 5 0 0 0 - - -, f 5;
#X obj -187 115 init 50;
#X obj 433 123 expr floor (60000 / floor ($f1));
#X connect 0 0 1 0;
#X connect 1 0 2 0;
#X connect 2 0 5 0;
#X connect 2 1 6 0;
#X connect 2 2 7 0;
#X connect 2 3 8 0;
#X connect 2 4 9 0;
#X connect 2 5 10 0;
#X connect 2 6 11 0;
#X connect 2 7 12 0;
#X connect 2 8 13 0;
#X connect 2 9 14 0;
#X connect 2 10 15 0;
#X connect 2 11 16 0;
#X connect 2 12 17 0;
#X connect 2 13 18 0;
#X connect 2 14 19 0;
#X connect 2 15 20 0;
#X connect 3 0 0 2;
#X connect 4 0 0 0;
#X connect 21 0 0 1;
#X connect 22 0 23 0;
#X connect 23 0 4 0;
#X connect 24 0 28 0;
#X connect 25 0 24 0;
#X connect 27 0 21 0;
#X connect 28 0 23 1;
#X connect 28 0 26 0;
#X coords 0 -1 1 1 165 45 2 100 100;
