#N canvas 473 229 790 367 10;
#N canvas 794 228 450 525 listrand 0;
#X obj 83 65 inlet;
#X msg 83 121 seed \$1;
#X obj 171 300 random \$1;
#X obj 171 362 list prepend;
#X obj 264 363 t a;
#X obj 171 266 until;
#X obj 140 121 t b b b;
#X obj 148 383 list;
#X obj 229 63 inlet;
#X obj 302 64 inlet;
#X obj 302 143 f \$2;
#X obj 313 115 loadbang;
#X obj 83 96 route seed;
#X obj 148 416 outlet;
#X text 83 39 seed/bang;
#X text 230 41 range;
#X text 303 40 length;
#X obj 171 245 f 1;
#X obj 302 163 max 1;
#X connect 0 0 12 0;
#X connect 1 0 2 0;
#X connect 2 0 3 0;
#X connect 3 0 4 0;
#X connect 3 0 7 1;
#X connect 4 0 3 1;
#X connect 5 0 2 0;
#X connect 6 0 7 0;
#X connect 6 1 17 0;
#X connect 6 2 3 1;
#X connect 7 0 13 0;
#X connect 8 0 2 1;
#X connect 9 0 10 0;
#X connect 10 0 18 0;
#X connect 11 0 10 0;
#X connect 12 0 1 0;
#X connect 12 1 6 0;
#X connect 17 0 5 0;
#X connect 18 0 17 1;
#X restore 278 -4 pd listrand;
#X obj 278 17 list;
#X obj 278 38 unpack 0 0 0 0 0 0 0 0 0 0 0 0 0 0 0 0;
#X obj 341 -31 init 16;
#X obj 309 -61 init 2;
#X obj 105 109 tgl 10 0 sel0 rand_el0 empty 17 7 0 10 -142191 -1 -1
0 1;
#X obj 125 109 tgl 10 0 sel2 rand_el2 empty 17 7 0 10 -142191 -1 -1
0 1;
#X obj 105 119 tgl 10 0 sel4 rand_el4 empty 17 7 0 10 -142191 -1 -1
0 1;
#X obj 125 119 tgl 10 0 sel6 rand_el6 empty 17 7 0 10 -142191 -1 -1
0 1;
#X obj 115 109 tgl 10 0 sel1 rand_el1 empty 17 7 0 10 -142191 -1 -1
0 1;
#X obj 135 109 tgl 10 0 sel3 rand_el3 empty 17 7 0 10 -142191 -1 -1
0 1;
#X obj 115 119 tgl 10 0 sel5 rand_el5 empty 17 7 0 10 -142191 -1 -1
0 1;
#X obj 135 119 tgl 10 0 sel7 rand_el7 empty 17 7 0 10 -142191 -1 -1
0 1;
#X obj 105 129 tgl 10 0 sel8 rand_el8 empty 17 7 0 10 -142191 -1 -1
0 1;
#X obj 125 129 tgl 10 0 sel10 rand_el10 empty 17 7 0 10 -142191 -1
-1 0 1;
#X obj 105 139 tgl 10 0 sel12 rand_el12 empty 17 7 0 10 -142191 -1
-1 0 1;
#X obj 125 139 tgl 10 0 sel14 rand_el14 empty 17 7 0 10 -142191 -1
-1 0 1;
#X obj 115 129 tgl 10 0 sel9 rand_el9 empty 17 7 0 10 -142191 -1 -1
0 1;
#X obj 135 129 tgl 10 0 sel11 rand_el11 empty 17 7 0 10 -142191 -1
-1 0 1;
#X obj 115 139 tgl 10 0 sel13 rand_el13 empty 17 7 0 10 -142191 -1
-1 0 1;
#X obj 135 139 tgl 10 0 sel15 rand_el15 empty 17 7 0 10 -142191 -1
-1 0 1;
#X obj -15 258 outlet;
#X obj -5 268 outlet;
#X obj 5 278 outlet;
#X obj 15 288 outlet;
#X obj 25 298 outlet;
#X obj 35 308 outlet;
#X obj 45 318 outlet;
#X obj 55 328 outlet;
#X obj 65 338 outlet;
#X obj 75 348 outlet;
#X obj 85 358 outlet;
#X obj 95 368 outlet;
#X obj 105 378 outlet;
#X obj 115 388 outlet;
#X obj 125 398 outlet;
#X obj 135 408 outlet;
#X obj 152 108 bng 15 250 50 0 empty empty Toggle 17 7 0 10 -33289
-4034 -159808;
#X obj 312 304 metro;
#X obj 155 147 hsl 90 8 80 500 0 0 empty empty Bpm -2 -8 0 10 -33289
-4034 -159808 8900 0;
#X obj 211 108 tgl 36 1 empty empty Always -40 21 0 10 -33289 -4034
-159808 0 1;
#X obj 398 212 init 500;
#X obj 397 254 expr floor (60000 / floor ($f1 \, 0) \, 0);
#X floatatom 397 305 5 0 0 0 - - -;
#X connect 0 0 1 0;
#X connect 1 0 2 0;
#X connect 2 0 5 0;
#X connect 2 1 9 0;
#X connect 2 2 6 0;
#X connect 2 3 10 0;
#X connect 2 4 7 0;
#X connect 2 5 11 0;
#X connect 2 6 8 0;
#X connect 2 7 12 0;
#X connect 2 8 13 0;
#X connect 2 9 17 0;
#X connect 2 10 14 0;
#X connect 2 11 18 0;
#X connect 2 12 15 0;
#X connect 2 13 19 0;
#X connect 2 14 16 0;
#X connect 2 15 20 0;
#X connect 3 0 0 2;
#X connect 4 0 0 1;
#X connect 5 0 21 0;
#X connect 6 0 23 0;
#X connect 7 0 25 0;
#X connect 8 0 27 0;
#X connect 9 0 22 0;
#X connect 10 0 24 0;
#X connect 11 0 26 0;
#X connect 12 0 28 0;
#X connect 13 0 29 0;
#X connect 14 0 31 0;
#X connect 15 0 33 0;
#X connect 16 0 35 0;
#X connect 17 0 30 0;
#X connect 18 0 32 0;
#X connect 19 0 34 0;
#X connect 20 0 36 0;
#X connect 37 0 0 0;
#X connect 38 0 37 0;
#X connect 39 0 42 0;
#X connect 40 0 38 0;
#X connect 41 0 39 0;
#X connect 42 0 43 0;
#X connect 42 0 38 1;
#X coords 0 -1 1 1 155 60 2 100 100;
