#N canvas 39 54 1327 714 10;
#X obj 108 144 hsl 35 8 1 15 0 0 empty empty empty -2 -8 0 10 -33289
-4034 -159808 0 0;
#X obj 151 144 hsl 35 8 1 15 0 0 empty empty empty -2 -8 0 10 -33289
-4034 -159808 0 0;
#X obj 108 155 hsl 35 8 1 15 0 0 empty empty empty -2 -8 0 10 -33289
-4034 -159808 0 0;
#X obj 151 155 hsl 35 8 1 15 0 0 empty empty empty -2 -8 0 10 -33289
-4034 -159808 0 0;
#X obj 108 166 hsl 35 8 1 15 0 0 empty empty empty -2 -8 0 10 -33289
-4034 -159808 0 0;
#X obj 151 166 hsl 35 8 1 15 0 0 empty empty empty -2 -8 0 10 -33289
-4034 -159808 0 0;
#X obj 108 177 hsl 35 8 1 15 0 0 empty empty empty -2 -8 0 10 -33289
-4034 -159808 0 0;
#X obj 151 177 hsl 35 8 1 15 0 0 empty empty empty -2 -8 0 10 -33289
-4034 -159808 0 0;
#X obj 194 144 hsl 35 8 1 15 0 0 empty empty empty -2 -8 0 10 -33289
-4034 -159808 0 0;
#X obj 237 144 hsl 35 8 1 15 0 0 empty empty empty -2 -8 0 10 -33289
-4034 -159808 0 0;
#X obj 194 155 hsl 35 8 1 15 0 0 empty empty empty -2 -8 0 10 -33289
-4034 -159808 0 0;
#X obj 237 155 hsl 35 8 1 15 0 0 empty empty empty -2 -8 0 10 -33289
-4034 -159808 0 0;
#X obj 194 166 hsl 35 8 1 15 0 0 empty empty empty -2 -8 0 10 -33289
-4034 -159808 0 0;
#X obj 237 166 hsl 35 8 1 15 0 0 empty empty empty -2 -8 0 10 -33289
-4034 -159808 2600 0;
#X obj 194 177 hsl 35 8 1 15 0 0 empty empty empty -2 -8 0 10 -33289
-4034 -159808 0 0;
#X obj 237 177 hsl 35 8 1 15 0 0 empty empty empty -2 -8 0 10 -33289
-4034 -159808 0 0;
#N canvas 593 131 646 589 listrand 0;
#X obj 83 65 inlet;
#X msg 83 121 seed \$1;
#X obj 171 300 random \$1;
#X obj 171 362 list prepend;
#X obj 264 363 t a;
#X obj 171 266 until;
#X obj 140 121 t b b b;
#X obj 148 383 list;
#X obj 229 63 inlet;
#X obj 302 64 inlet;
#X obj 302 143 f \$2;
#X obj 313 115 loadbang;
#X obj 83 96 route seed;
#X obj 148 416 outlet;
#X text 83 39 seed/bang;
#X text 230 41 range;
#X text 303 40 length;
#X obj 171 245 f 1;
#X obj 302 163 max 1;
#X connect 0 0 12 0;
#X connect 1 0 2 0;
#X connect 2 0 3 0;
#X connect 3 0 4 0;
#X connect 3 0 7 1;
#X connect 4 0 3 1;
#X connect 5 0 2 0;
#X connect 6 0 7 0;
#X connect 6 1 17 0;
#X connect 6 2 3 1;
#X connect 7 0 13 0;
#X connect 8 0 2 1;
#X connect 9 0 10 0;
#X connect 10 0 18 0;
#X connect 11 0 10 0;
#X connect 12 0 1 0;
#X connect 12 1 6 0;
#X connect 17 0 5 0;
#X connect 18 0 17 1;
#X restore 71 -156 pd listrand;
#X obj 221 109 bng 15 250 50 0 empty empty Random 17 7 0 10 -33289
-4034 -159808;
#X obj 71 -65 list;
#X obj 71 -44 unpack 0 0 0 0 0 0 0 0 0 0 0 0 0 0 0 0;
#X obj 102 -216 init 15;
#X obj 134 -178 init 16;
#X obj 110 247 outlet;
#X obj 120 257 outlet;
#X obj 130 267 outlet;
#X obj 140 277 outlet;
#X obj 150 287 outlet;
#X obj 160 297 outlet;
#X obj 170 307 outlet;
#X obj 180 317 outlet;
#X obj 190 327 outlet;
#X obj 200 337 outlet;
#X obj 210 347 outlet;
#X obj 220 357 outlet;
#X obj 230 367 outlet;
#X obj 240 377 outlet;
#X obj 250 387 outlet;
#X obj 260 397 outlet;
#X obj 161 109 tgl 15 0 empty empty Always 17 7 0 10 -33289 -4034 -159808
0 1;
#X obj -348 124 metro;
#X obj 108 133 hsl 164 8 80 500 0 0 empty empty Bpm -2 -8 0 10 -33289
-4034 -159808 16300 0;
#X obj -321 203 expr floor (60000 / floor ($f1 \, 0) \, 0);
#X obj 46 44 init 500;
#X floatatom -321 246 5 0 0 0 - - -;
#X connect 0 0 22 0;
#X connect 1 0 23 0;
#X connect 2 0 26 0;
#X connect 3 0 27 0;
#X connect 4 0 30 0;
#X connect 5 0 31 0;
#X connect 6 0 34 0;
#X connect 7 0 35 0;
#X connect 8 0 24 0;
#X connect 9 0 25 0;
#X connect 10 0 28 0;
#X connect 11 0 29 0;
#X connect 12 0 32 0;
#X connect 13 0 33 0;
#X connect 14 0 36 0;
#X connect 15 0 37 0;
#X connect 16 0 18 0;
#X connect 17 0 16 0;
#X connect 18 0 19 0;
#X connect 19 0 0 0;
#X connect 19 1 1 0;
#X connect 19 2 8 0;
#X connect 19 3 9 0;
#X connect 19 4 2 0;
#X connect 19 5 3 0;
#X connect 19 6 10 0;
#X connect 19 7 11 0;
#X connect 19 8 4 0;
#X connect 19 9 5 0;
#X connect 19 10 12 0;
#X connect 19 11 13 0;
#X connect 19 12 6 0;
#X connect 19 13 7 0;
#X connect 19 14 14 0;
#X connect 19 15 15 0;
#X connect 20 0 16 1;
#X connect 21 0 16 2;
#X connect 38 0 39 0;
#X connect 39 0 17 0;
#X connect 40 0 41 0;
#X connect 41 0 39 1;
#X connect 41 0 43 0;
#X connect 42 0 40 0;
#X coords 0 -1 1 1 180 90 2 100 100;
