#N canvas 641 202 625 471 10;
#X obj 26 335 noteout;
#X obj 342 224 + 1;
#X obj 26 215 makenote;
#X obj 26 50 inlet;
#X obj 126 78 inlet;
#X obj 248 137 inlet;
#X obj 342 200 inlet;
#X connect 1 0 0 2;
#X connect 2 0 0 0;
#X connect 2 1 0 1;
#X connect 3 0 2 0;
#X connect 4 0 2 1;
#X connect 5 0 2 2;
#X connect 6 0 1 0;
